<?xml version="1.0" standalone="no"?><!DOCTYPE svg PUBLIC "-//W3C//DTD SVG 1.1//EN" "http://www.w3.org/Graphics/SVG/1.1/DTD/svg11.dtd"><svg class="icon" width="200px" height="200.00px" viewBox="0 0 1024 1024" version="1.1" xmlns="http://www.w3.org/2000/svg"><path fill="#ffffff" d="M576 160h140.8c6.4 0 12.8-6.4 12.8-12.8s-6.4-19.2-12.8-19.2H576c-6.4 0-12.8 6.4-12.8 19.2 0 6.4 6.4 12.8 12.8 12.8z m-268.8 128h416c6.4 0 12.8-6.4 12.8-12.8s-6.4-19.2-12.8-19.2H307.2c-12.8 0-19.2 6.4-19.2 19.2 0 6.4 6.4 12.8 19.2 12.8z m428.8 108.8c0-6.4-6.4-12.8-12.8-12.8H307.2c-12.8 0-19.2 6.4-19.2 12.8s6.4 19.2 12.8 19.2h416c12.8 0 19.2-6.4 19.2-19.2z m256-6.4l-128-57.6V64c0-38.4-32-64-64-64h-576c-38.4 0-64 32-64 64v268.8l-121.6 57.6c-25.6 6.4-38.4 32-38.4 57.6v512c0 38.4 32 64 64 64h896c38.4 0 64-32 64-64V435.2c0-19.2-12.8-32-32-44.8z m-128-19.2l108.8 44.8-108.8 70.4V371.2zM192 64c0-19.2 12.8-32 32-32h569.6c25.6 0 38.4 12.8 38.4 32v441.6l-300.8 192c-12.8 6.4-25.6 6.4-38.4 0L192 505.6V64zM51.2 416l108.8-44.8v115.2L51.2 416zM992 960c0 19.2-12.8 32-32 32H64c-19.2 0-32-12.8-32-32V448v-6.4l441.6 275.2c12.8 6.4 25.6 12.8 38.4 12.8s25.6-6.4 38.4-12.8l441.6-281.6V960z" /></svg>