<?xml version="1.0" standalone="no"?><!DOCTYPE svg PUBLIC "-//W3C//DTD SVG 1.1//EN" "http://www.w3.org/Graphics/SVG/1.1/DTD/svg11.dtd"><svg class="icon" width="200px" height="200.00px" viewBox="0 0 1024 1024" version="1.1" xmlns="http://www.w3.org/2000/svg"><path fill="#ffffff" d="M761.850441 932.630013c-7.627724 0-15.83157-2.170432-24.083511-6.508227l-202.920596-106.679671c-13.697977-7.199982-38.649252-7.199982-52.347229 0L279.576463 926.120762c-16.490579 8.66945-32.777521 8.676613-44.690852 0.023536-11.910261-8.654101-16.933671-24.145933-13.788028-42.507116l38.755676-225.957265c2.615571-15.254425-5.094018-38.984896-16.177448-49.786916L79.511915 447.869401c-13.337773-13.002129-18.379603-28.489868-13.831007-42.49279 4.548596-14.003945 17.73185-23.570835 36.167734-26.251897l226.873124-32.966832c15.315824-2.224668 35.501562-16.891715 42.35055-30.769794l101.461833-205.581192c8.243755-16.705474 21.416775-26.285666 36.139082-26.285666 14.724353 0 27.895327 9.580193 36.141128 26.285666l101.46081 205.582215c6.848988 13.878079 27.036773 28.544103 42.351574 30.769794l226.873124 32.966832c18.435884 2.677992 31.617092 12.244882 36.167734 26.247804 4.549619 14.002922-0.490164 29.490661-13.829983 42.49586l-164.169013 160.0236c-11.084453 10.80202-18.794042 34.531468-16.177448 49.786916l38.754652 225.957265c3.149736 18.359137-1.87572 33.853016-13.789051 42.507116C776.507256 930.46879 769.46384 932.630013 761.850441 932.630013zM108.762099 419.373393l163.410744 159.287843c20.834514 20.308535 32.836873 57.245795 27.91784 85.921905l-38.57455 224.913493L463.500403 783.308149c25.753547-13.538341 64.592111-13.537318 90.342588 0L755.828284 889.496633l-38.57455-224.916563c-4.919033-28.677133 7.084349-65.614393 27.918863-85.919858l163.410744-159.285796-225.828328-32.813337c-28.79072-4.182252-60.211337-27.01119-73.088622-53.101405l-100.992135-204.63668-100.994182 204.63361c-12.877285 26.089192-44.297902 48.91813-73.090669 53.101405L108.762099 419.373393z" /></svg>