<?xml version="1.0" standalone="no"?><!DOCTYPE svg PUBLIC "-//W3C//DTD SVG 1.1//EN" "http://www.w3.org/Graphics/SVG/1.1/DTD/svg11.dtd"><svg class="icon" width="200px" height="200.00px" viewBox="0 0 1024 1024" version="1.1" xmlns="http://www.w3.org/2000/svg"><path fill="#ffffff" d="M458.650364 983.90518v0.157515-0.157515zM458.636045 984.062695zM458.650364 984.119973zM458.621725 983.90518l0.01432 0.114556 0.028639-0.114556h-0.042959zM695.539154 236.938679a236.917429 236.917429 0 1 0-236.903109 236.903109 236.903109 236.903109 0 0 0 236.903109-236.903109zM205.408616 546.728444c-101.912441 0-220.607429 337.154479-179.825269 364.490555 0 0 295.513145 70.924873 433.038378 72.843696l-78.972476-437.334251zM827.107442 664.950885a179.524558 179.524558 0 1 0 179.524558 179.524557 179.510238 179.510238 0 0 0-179.524558-179.524557z m22.123749 280.950133h-37.789368l-64.609939-191.366849h42.729623l41.526778 145.329404 41.942046-145.329404h41.526778l-65.325918 191.366849z"  /><path fill="#ffffff" d="M827.107442 645.003712h0.68734c-31.316919-55.917955-68.375988-98.275268-104.733398-98.275268H537.608521l-78.943837 437.176736v0.157515h5.598955c51.163855 0 126.642354-10.496251 200.617297-23.512748a199.514689 199.514689 0 0 1 162.226506-315.546235z"  /></svg>