<?xml version="1.0" standalone="no"?><!DOCTYPE svg PUBLIC "-//W3C//DTD SVG 1.1//EN" "http://www.w3.org/Graphics/SVG/1.1/DTD/svg11.dtd"><svg class="icon" width="200px" height="200.00px" viewBox="0 0 1024 1024" version="1.1" xmlns="http://www.w3.org/2000/svg"><path fill="#ffffff" d="M853.320693 284.440231l-113.381721 0L739.938972 220.392831c0-43.191231-33.976596-78.191675-75.916457-78.191675l-75.992297 0c-41.939861 0-75.916457 35.000444-75.916457 78.191675l0 64.0474L341.320693 284.440231c-40.385128 0-85.320693 44.253-85.320693 85.320693l0 56.880462L170.641386 426.641386c-40.385128 0-85.320693 26.771738-85.320693 67.839431l0 72.200267c0 41.067694 44.935565 87.520071 85.320693 87.520071l85.320693 0 0 142.201155c0 41.067694 44.935565 85.320693 85.320693 85.320693l113.760924 0 56.804622 0 0-99.427048c0-39.247519 29.691601-71.062657 66.322619-71.062657l37.882388 0c36.631018 0 66.360539 31.815138 66.360539 71.062657l0 99.427048 57.107984 0 142.201155 0c40.385128 0 56.880462-15.812768 56.880462-56.880462L938.603466 369.760924C938.641386 328.693231 893.705821 284.440231 853.320693 284.440231zM881.760924 796.440231c0 15.736928-12.741224 28.440231-28.440231 28.440231l-113.760924 0 0-56.880462c0-62.833951-50.964894-113.760924-113.760924-113.760924l-56.880462 0c-62.833951 0-113.760924 50.926974-113.760924 113.760924l0 56.880462-113.760924 0c-15.736928 0-28.440231-12.741224-28.440231-28.440231l0-199.081618L170.641386 597.358614c-15.699008 0-28.440231-12.741224-28.440231-28.440231l0-56.880462c0-15.699008 12.741224-28.440231 28.440231-28.440231l142.201155 0 0-113.760924c0-15.699008 12.741224-28.440231 28.440231-28.440231l227.521849 0 0-113.760924c0-15.699008 12.741224-28.440231 28.440231-28.440231l56.880462 0c15.699008 0 28.440231 12.741224 28.440231 28.440231l0 113.760924 170.641386 0c15.736928 0 28.440231 12.741224 28.440231 28.440231L881.647163 796.440231z" /></svg>