<?xml version="1.0" standalone="no"?><!DOCTYPE svg PUBLIC "-//W3C//DTD SVG 1.1//EN" "http://www.w3.org/Graphics/SVG/1.1/DTD/svg11.dtd"><svg class="icon" width="200px" height="200.00px" viewBox="0 0 1024 1024" version="1.1" xmlns="http://www.w3.org/2000/svg"><path fill="#ffffff" d="M286.117647 173.176471c-61.741176 0-112.941176 51.2-112.941176 112.941176s51.2 112.941176 112.941176 112.941177 112.941176-51.2 112.941177-112.941177-51.2-112.941176-112.941177-112.941176zM850.823529 963.764706h-57.223529v-112.941177h-112.941176V737.882353h-112.941177v-57.223529h-112.941176v-79.811765c-34.635294 15.058824-72.282353 24.094118-112.941177 24.094117C186.729412 624.941176 60.235294 498.447059 60.235294 343.341176S186.729412 60.235294 343.341176 60.235294s283.105882 126.494118 283.105883 283.105882c0 40.658824-9.035294 78.305882-24.094118 112.941177h79.811765v112.941176l283.105882 225.882353V963.764706h-114.447059z"  /></svg>