<?xml version="1.0" standalone="no"?><!DOCTYPE svg PUBLIC "-//W3C//DTD SVG 1.1//EN" "http://www.w3.org/Graphics/SVG/1.1/DTD/svg11.dtd"><svg class="icon" width="200px" height="200.00px" viewBox="0 0 1024 1024" version="1.1" xmlns="http://www.w3.org/2000/svg"><path fill="#ffffff" d="M934.829 560.487L510.068 159.503 85.307 560.487l-23.34-24.724 448.101-423.016 448.1 423.016z"  /><path fill="#ffffff" d="M935.194 573.21L510.068 171.88 84.941 573.21l-35.696-37.813L510.068 100.37l460.823 435.027-35.697 37.813zM74.69 536.129l10.983 11.636 424.395-400.638 424.394 400.638 10.983-11.636-435.377-411.005L74.69 536.129zM822.637 915.125h-230v-180h-164v180h-234v-335h34v301h166v-180h232v180h162v-301h34z"  /><path fill="#ffffff" d="M831.637 924.125h-248v-180h-146v180h-252v-353h52v301h148v-180h250v180h144v-301h52v353z m-230-18h212v-317h-16v301h-180v-180h-214v180h-184v-301h-16v317h216v-180h182v180z"  /><path fill="#ffffff" d="M832.637 322.125h-34v-113h-127v-34h161z"  /><path fill="#ffffff" d="M841.637 331.125h-52v-113h-127v-52h179v165z m-34-18h16v-129h-143v16h127v113z"  /></svg>