<?xml version="1.0" standalone="no"?><!DOCTYPE svg PUBLIC "-//W3C//DTD SVG 1.1//EN" "http://www.w3.org/Graphics/SVG/1.1/DTD/svg11.dtd"><svg class="icon" width="200px" height="200.00px" viewBox="0 0 1024 1024" version="1.1" xmlns="http://www.w3.org/2000/svg"><path fill="#ffffff" d="M243.809524 365.714286c-40.326095 0-73.142857-32.816762-73.142857-73.142857s32.816762-73.142857 73.142857-73.142857 73.142857 32.816762 73.142857 73.142857S284.135619 365.714286 243.809524 365.714286zM243.809524 268.190476c-13.433905 0-24.380952 10.947048-24.380952 24.380952s10.947048 24.380952 24.380952 24.380952 24.380952-10.947048 24.380952-24.380952S257.243429 268.190476 243.809524 268.190476zM682.666667 653.385143l-205.897143-137.289143c-9.679238-6.436571-22.528-5.168762-30.768762 3.047619l-219.428571 219.428571c-9.532952 9.532952-9.532952 24.941714 0 34.474667C231.326476 777.801143 237.568 780.190476 243.809524 780.190476s12.483048-2.389333 17.237333-7.143619l205.287619-205.287619 202.800762 135.192381c8.192 5.461333 18.846476 5.461333 27.038476 0L999.619048 512c0-7.631238 0-414.47619 0-414.47619s0-97.52381-99.05981-97.52381L123.440762 0C27.428571 0 24.380952 97.52381 24.380952 97.52381l0 828.952381c0 0 0 97.52381 97.52381 97.52381l10.044952 0 771.657143 0c0 0 96.01219 0 96.01219-97.52381L999.619048 658.285714c0-13.482667-10.898286-24.380952-24.380952-24.380952s-24.380952 10.898286-24.380952 24.380952l0 243.809524c0 0 0 73.142857-73.142857 73.142857-73.118476 0-731.428571 0-731.428571 0s-73.142857 0-73.142857-73.142857L73.142857 121.904762c0 0 0-73.142857 73.142857-73.142857s682.666667 0 731.428571 0c73.142857 0 73.142857 73.142857 73.142857 73.142857l0 365.714286L682.666667 653.385143z" /></svg>