<?xml version="1.0" standalone="no"?><!DOCTYPE svg PUBLIC "-//W3C//DTD SVG 1.1//EN" "http://www.w3.org/Graphics/SVG/1.1/DTD/svg11.dtd"><svg class="icon" width="200px" height="200.00px" viewBox="0 0 1024 1024" version="1.1" xmlns="http://www.w3.org/2000/svg"><path fill="#ffffff" d="M768 512v460.8h-51.2V307.2h102.4L512 102.4 204.8 307.2h102.4v665.6H256V512H51.2v512h921.6V512H768zM102.4 614.4h102.4v51.2H102.4v-51.2z m0 102.4h102.4V768H102.4v-51.2z m0 102.4h102.4v51.2H102.4v-51.2zM512 358.4c56.559 0 102.4 45.841 102.4 102.4S568.559 563.2 512 563.2s-102.4-45.841-102.4-102.4S455.441 358.4 512 358.4zM409.6 972.8v-256h204.8v256H409.6z m409.6-358.4h102.4v51.2H819.2v-51.2z m0 102.4h102.4V768H819.2v-51.2z m0 102.4h102.4v51.2H819.2v-51.2z" /></svg>