<?xml version="1.0" standalone="no"?><!DOCTYPE svg PUBLIC "-//W3C//DTD SVG 1.1//EN" "http://www.w3.org/Graphics/SVG/1.1/DTD/svg11.dtd"><svg class="icon" width="200px" height="141.44px" viewBox="0 0 1448 1024" version="1.1" xmlns="http://www.w3.org/2000/svg"><path fill="#ffffff" d="M1205.480984 504.30039L1082.713829 320.129015c-18.435372-27.750249-49.335304-44.317484-82.727806-44.317484h-115.449428V221.768042c0-54.83306-44.597877-99.446418-99.425777-99.446419H324.553366c-54.8365 0-99.449859 44.613358-99.449858 99.446419v337.675044c0 52.359414 40.682704 95.403951 92.102889 99.172906v84.991588c0 54.843381 44.604757 99.453299 99.429216 99.453299h29.532375c16.728934 54.511383 66.951861 92.10977 124.062465 92.10977 57.053837 0 107.233759-37.596667 123.957532-92.10977h151.138396c16.735815 54.511383 66.969063 92.10977 124.084827 92.10977 57.050396 0 107.219997-37.596667 123.93689-92.10977h29.549577c54.826179 0 99.425776-44.611638 99.425776-99.453299V559.408682c-0.094611-19.785728-5.922645-38.848972-16.842467-55.108292z m-812.377691 154.680285h391.804542c54.8365 0 99.449859-44.608198 99.449859-99.436098V351.804757h115.437387a23.346539 23.346539 0 0 1 19.415885 10.37452l122.753394 184.112888c2.599221 4.001183 3.971939 8.511544 3.971939 13.054589V743.60758l0.025803 1.880177c-0.956431 12.005268-11.029915 21.480124-23.277732 21.480124h-29.522053c-16.742696-54.507942-66.920898-92.092568-123.959253-92.092569-57.105443 0-107.324929 37.586346-124.059024 92.092569h-151.155598c-16.735815-54.507942-66.915737-92.092568-123.952372-92.092569-57.122645 0-107.349012 37.62075-124.065905 92.18718h-29.532374c-12.867088 0-23.336218-10.477731-23.336219-23.3517v-84.730117z m-92.10461-437.310684c0-12.870528 10.476011-23.346539 23.35342-23.34654h460.555732c12.865368 0 23.336218 10.476011 23.336218 23.34654v337.778255c0 12.868808-10.472571 23.334498-23.336218 23.334498H324.352103c-12.877409 0-23.35342-10.46569-23.35342-23.334498v-337.778255z m269.039108 529.38777c29.799006 0 54.043489 24.249644 54.043488 54.058971 0 29.807607-24.244483 54.05209-54.043488 54.052089-29.805886 0-54.05553-24.244483-54.055531-54.052089 0-29.809327 24.249644-54.058971 54.055531-54.058971z m453.198441 54.058971c-0.006881 29.807607-24.235882 54.05209-54.026287 54.052089-29.811047 0-54.060691-24.244483-54.060691-54.052089 0-29.809327 24.249644-54.058971 54.060691-54.058971 29.795565 0 54.026287 24.249644 54.026287 54.058971z"  /><path fill="#ffffff" d="M938.504395 628.178793h122.782636c20.976105 0 38.047359-17.066093 38.04736-38.045639v-46.089289c0-7.582637-2.213896-14.891762-6.390539-21.137804l-92.065045-138.075205c-7.033893-10.592985-18.874022-16.919876-31.670582-16.919876h-30.705551c-20.979546 0-38.045639 17.066093-38.045639 38.047359v184.176535c0.00172 20.977826 17.067813 38.043919 38.04736 38.043919z m7.350409-45.396049v-169.477436h19.426207l88.659051 133.064266v36.41489h-108.085258z"  /></svg>