<?xml version="1.0" standalone="no"?><!DOCTYPE svg PUBLIC "-//W3C//DTD SVG 1.1//EN" "http://www.w3.org/Graphics/SVG/1.1/DTD/svg11.dtd"><svg class="icon" width="200px" height="200.00px" viewBox="0 0 1024 1024" version="1.1" xmlns="http://www.w3.org/2000/svg"><path fill="#ffffff" d="M1006.407 144.964c-7.454-42.698-37.072-53.378-49.46-55.985l-3.526-0.742h-20.122a30.824 30.824 0 0 0-2.249-0.093h-36.147c-0.756 0-1.508 0.04-2.249 0.093h-2.051v0.221c-14.524 2.087-25.69 14.578-25.69 29.681v9.345c0 15.102 11.166 27.595 25.69 29.681v0.289h3.427c0.29 0.005 0.585 0.02 0.879 0.02h36.142c0.295 0 0.585-0.015 0.88-0.02h6.407c0.545 3.65 0.687 8.5 0.245 12.363l-0.299 1.945v726.505c-1.378 20.897-8.474 36.61-21.083 46.704-7.563 6.054-15.34 8.74-18.865 9.731h-56.333l0.035-0.854c-22.459-0.875-36.007-9.31-43.926-27.344-6.929-15.776-6.737-32.633-6.698-34.338l0.04-0.54V136.774c2.263-42.054-8.077-74.284-30.747-95.82-26.015-24.712-58.194-24.948-67.97-24.379H93.76l-0.289 0.005c-26.406 0.216-48.964 9.903-65.235 28.006C-1.342 77.503 0.402 127.188 1.27 138.87v752.695c-0.285 6.997-0.397 33.285 11.97 60.86 18.973 42.296 58.086 67.656 110.134 71.402l1.236 0.09H904.74l2.572-0.39c4.158-0.628 26.078-4.61 48.884-21.27 21.628-15.795 48.08-46.135 51.242-100.935l0.06-0.993V176.285c0.553-5.597 1.261-17.847-1.09-31.321z m-879.239 809.74c-16.375-1.312-38.77-5.95-49.99-28.93-6.971-14.285-6.81-29.28-6.756-31.156l0.063-0.667V135.723l-0.166-1.693c-0.777-7.871 0.004-32.725 9.396-43.175 2.206-2.455 5.618-4.97 14.2-5.062h600.046l1.084 0.222 2.318-0.369c1.89-0.015 10.385 0.196 15.988 5.798 6.962 6.957 10.139 21.992 8.946 42.335l-0.06 1.011v754.945c-0.255 7.05-0.353 35.68 12.634 64.97H127.168v-0.002z m520.39-760.383c0 20.066-16.267 36.334-36.335 36.334H178.661c-20.068 0-36.34-16.268-36.34-36.334 0-20.068 16.272-36.336 36.34-36.336h432.562c20.068 0 36.334 16.268 36.334 36.336z m0 652.308M646.35 396.203c0 20.068-16.266 36.334-36.334 36.334H177.452c-20.067 0-36.339-16.266-36.339-36.334 0-20.068 16.267-36.334 36.34-36.334h432.562c20.068-0.001 36.335 16.266 36.335 36.334M646.35 593.701c0 20.068-16.266 36.334-36.334 36.334H177.452c-20.067 0-36.339-16.266-36.339-36.334 0-20.068 16.267-36.334 36.34-36.334h432.562c20.068 0 36.335 16.266 36.335 36.334M359.125 792.2c0 20.068-16.266 36.334-36.334 36.334H177.452c-20.067 0-36.339-16.266-36.339-36.334 0-20.068 16.267-36.334 36.34-36.334H322.79c20.068 0 36.335 16.266 36.335 36.334z m0 0" /></svg>