<?xml version="1.0" standalone="no"?><!DOCTYPE svg PUBLIC "-//W3C//DTD SVG 1.1//EN" "http://www.w3.org/Graphics/SVG/1.1/DTD/svg11.dtd"><svg class="icon" width="200px" height="200.00px" viewBox="0 0 1024 1024" version="1.1" xmlns="http://www.w3.org/2000/svg"><path fill="#ffffff" d="M888.550259 295.672926c-56.69636 21.763045-28.954769 43.43595-28.954769 43.43595s23.991933 9.517347 43.432753 72.394916c13.714701 44.351929-5.797469 118.726304-14.477984 130.306652-8.682713 11.579149-17.377618-127.409017-57.911536-144.785635-40.538315-17.377618-5.797269 0-14.478983 43.432553-8.681714 43.43595-5.797469 89.771735-57.916133 130.311049-52.118664 40.538315 23.160697-66.597647 0-130.311049-23.160697-63.709005-92.666972 5.797269-101.347486 130.311049-5.163899 73.947663-9.290901 121.169847-11.791405 147.472014l156.576041 156.577241L323.882304 874.817666l217.180552-260.613304 21.890558 21.883963c14.562527-41.978938 47.166021-133.758312 64.98454-166.673995 24.403255-45.08863 43.43595-57.911736 43.43595-57.911736s47.578342-46.335584-28.957966-43.43595c-72.395116 2.739143-144.790032 57.910537-144.790032 57.910537s36.257417-102.098577 101.353083-115.827669c54.324568-11.453834 72.390519 0 72.390519 0s-47.732238-66.977189-101.347486-43.43695c-95.142294 41.780873 34.328725-62.051729 86.869702-43.432553 63.487955 22.495348 72.395116 57.911536 72.395116 57.911536s2.898635-118.726304-14.478983-130.305453c-17.376619-11.581348 80.66431 37.226161 86.875099 101.347486 2.785312 28.817262 56.602024-34.318732 159.263619 0C1008.303666 268.068641 1005.469787 250.795353 888.550259 295.672926L888.550259 295.672926zM478.030192 383.69065c-26.34194-12.147764-50.983833 19.667066-50.983833 19.667066s9.145799-5.300206 36.012184 0.989729c32.179982 7.55128 48.850479 57.531194 48.850479 57.531194s-35.261093-27.737394-71.231705-30.041232c-38.020222-2.46313-14.991436 20.655795-14.991436 20.655795s4.014878 10.149718 20.830477 28.65777c19.329495 21.265982 33.479701 121.174044 33.479701 121.174044l-44.36612 55.39784c0 0-2.222293-67.370723-4.862703-127.848918-2.659997-60.4716-36.299189-95.096125-48.671401-64.543639-12.368814 30.571073 23.64337 83.521173-1.736423 63.160177-25.379793-20.360995-23.315792-42.770602-27.063251-63.95304-3.733269-21.167049 13.770863-29.113061-6.618713-21.251791-20.388377 7.87566-26.583976 75.124266-30.739359 69.398548-4.169773-5.740108-18.180474-41.71052-12.65462-63.559307 7.396185-29.295538 36.973332-34.103278 36.973332-34.103278s19.201981-8.977513-21.021947-21.645324c-59.313585-18.667543-66.260076-17.462361-35.421784-22.045653 53.234907-7.903042 77.426905 16.12087 79.210695 2.177324 3.944326-30.994586 53.361221-53.319449 44.567383-47.930103-8.808228 5.373956-8.948933 62.962312-8.948933 62.962312s4.901077-17.053238 36.776466-27.090832C461.800595 353.152355 524.806877 405.238041 478.030192 383.69065L478.030192 383.69065zM410.757402 701.074064l-159.264619 173.744801L34.312032 874.818865l246.138718-419.88232L410.757402 701.074064 410.757402 701.074064z" /></svg>