<?xml version="1.0" standalone="no"?><!DOCTYPE svg PUBLIC "-//W3C//DTD SVG 1.1//EN" "http://www.w3.org/Graphics/SVG/1.1/DTD/svg11.dtd"><svg class="icon" width="200px" height="151.03px" viewBox="0 0 1356 1024" version="1.1" xmlns="http://www.w3.org/2000/svg"><path fill="#ffffff" d="M161.234243 721.158984l346.55127-2.287865 0.60207 72.850423-117.764817 0.963311 1.444967 142.329257 395.559737 1.444967 26.852305-286.344309-19.868297-2.528692c0 0-64.903104 65.38476-172.553151 19.627469-53.825024-22.878645-73.572907-68.395108-78.871119-108.372531-15.05174-115.476952 92.477893-160.030103 89.226717-176.045155-1.926623-9.633114-45.998119-50.453434-33.836312-108.011289 10.837253-51.296331 35.401693-76.462841 67.431797-93.441204 32.030103-16.978363 61.290687-13.968015 61.290687-13.968015-29.260583-210.363123 295.495767-182.908749 244.801505-1.685795 0 0 88.022578 2.047037 111.142051 85.734713 23.119473 83.687676-29.140169 133.53904-29.140169 133.53904s89.9492 49.490122 86.938852 153.527752c-2.889934 104.037629-87.540922 147.747883-131.251176 148.109125-43.710254 0.240828-76.824083-14.570085-77.66698-14.931326l-48.767639-23.360301L866.980245 647.826905l20.831609 286.946378 305.610536-0.842897 0.842897 72.248354-1032.549389-0.120414-0.60207-69.840075 130.167451 0.120414 0-145.700847L160.150517 791.239887 161.234243 721.158984 161.234243 721.158984zM161.234243 721.158984" /></svg>