<?xml version="1.0" standalone="no"?><!DOCTYPE svg PUBLIC "-//W3C//DTD SVG 1.1//EN" "http://www.w3.org/Graphics/SVG/1.1/DTD/svg11.dtd"><svg class="icon" width="200px" height="169.96px" viewBox="0 0 1205 1024" version="1.1" xmlns="http://www.w3.org/2000/svg"><path fill="#ffffff" d="M86.738824 832.451765C40.96 832.451765 0 871.002353 0 916.781176 0 962.56 40.96 1003.52 86.738824 1003.52 132.517647 1003.52 171.068235 962.56 171.068235 916.781176 171.068235 871.002353 132.517647 832.451765 86.738824 832.451765ZM86.738824 418.032941C40.96 418.032941 0 456.583529 0 502.362353 0 548.141176 40.96 586.691765 86.738824 586.691765 132.517647 586.691765 171.068235 548.141176 171.068235 502.362353 171.068235 456.583529 132.517647 418.032941 86.738824 418.032941ZM395.143529 165.044706 1125.195294 165.044706C1168.564706 165.044706 1204.705882 131.312941 1204.705882 87.943529 1204.705882 44.574118 1168.564706 8.432941 1125.195294 8.432941L395.143529 8.432941C351.774118 8.432941 315.632941 44.574118 315.632941 87.943529 315.632941 131.312941 351.774118 165.044706 395.143529 165.044706ZM86.738824 1.204706C40.96 1.204706 0 42.164706 0 87.943529 0 133.722353 40.96 172.272941 86.738824 172.272941 132.517647 172.272941 171.068235 133.722353 171.068235 87.943529 171.068235 42.164706 132.517647 1.204706 86.738824 1.204706ZM1125.195294 422.851765 395.143529 422.851765C351.774118 422.851765 315.632941 458.992941 315.632941 502.362353 315.632941 545.731765 351.774118 581.872941 395.143529 581.872941L1125.195294 581.872941C1168.564706 581.872941 1204.705882 545.731765 1204.705882 502.362353 1204.705882 458.992941 1168.564706 422.851765 1125.195294 422.851765ZM1125.195294 837.270588 395.143529 837.270588C351.774118 837.270588 315.632941 873.411765 315.632941 916.781176 315.632941 960.150588 351.774118 996.291765 395.143529 996.291765L1125.195294 996.291765C1168.564706 996.291765 1204.705882 960.150588 1204.705882 916.781176 1204.705882 873.411765 1168.564706 837.270588 1125.195294 837.270588Z" /></svg>