<?xml version="1.0" standalone="no"?><!DOCTYPE svg PUBLIC "-//W3C//DTD SVG 1.1//EN" "http://www.w3.org/Graphics/SVG/1.1/DTD/svg11.dtd"><svg class="icon" width="200px" height="145.45px" viewBox="0 0 1408 1024" version="1.1" xmlns="http://www.w3.org/2000/svg"><path fill="#ffffff" d="M1401.606 621.316c-0.021-0.852-0.057-1.701-0.083-2.551-0.051-1.612-0.107-3.22-0.185-4.826-0.050-1.047-0.11-2.091-0.169-3.135-0.078-1.378-0.165-2.755-0.262-4.127-0.082-1.17-0.169-2.341-0.265-3.508-0.096-1.178-0.203-2.354-0.313-3.529-0.123-1.325-0.246-2.649-0.385-3.97-0.085-0.803-0.182-1.601-0.275-2.4-14.74-129.675-109.227-235.138-233.234-266.151-20.066-179.317-220.086-320.242-464.367-320.242-244.281 0-444.3 140.925-464.367 320.242-124.004 31.017-218.49 136.477-233.231 266.151-0.091 0.799-0.189 1.599-0.275 2.4-0.139 1.321-0.262 2.645-0.385 3.97-0.11 1.175-0.217 2.35-0.313 3.529-0.096 1.167-0.182 2.336-0.265 3.508-0.098 1.373-0.182 2.749-0.262 4.127-0.059 1.044-0.121 2.087-0.169 3.135-0.075 1.604-0.133 3.214-0.185 4.826-0.027 0.851-0.062 1.7-0.083 2.551-0.059 2.478-0.094 4.961-0.094 7.454v155.474c0 42.934 34.802 77.737 77.735 77.737h81.657c18.010 88.701 96.402 155.474 190.421 155.474 0.449 0 0.895-0.011 1.345-0.014 0.363 0.002 0.723 0.014 1.086 0.014 94.019 0 172.443-66.766 190.45-155.472h316.327c18.010 88.701 96.402 155.474 190.421 155.474 0.449 0 0.895-0.011 1.345-0.014 0.363 0.002 0.723 0.014 1.086 0.014 94.021 0 172.443-66.766 190.45-155.472h79.199c42.934 0 77.735-34.802 77.735-77.735v-155.474c0.003-2.496-0.032-4.979-0.091-7.457v0zM1086.319 317.823h-347.793v-231.993c176.755 11.774 322.039 108.205 347.793 231.993v0zM660.79 86.185v231.638h-342.967c25.519-122.658 168.401-218.444 342.967-231.638v0zM470.905 832.147c-1.897 4.57-3.394 9.365-4.409 14.365-10.879 53.573-58.249 92.555-112.919 93.177-63.786-0.601-115.498-52.652-115.498-116.577 0-64.295 52.309-116.604 116.606-116.604 64.297 0 116.604 52.309 116.604 116.604-0.002 3.041-0.155 6.049-0.385 9.035v0zM1170.535 832.147c-1.895 4.57-3.394 9.365-4.409 14.365-10.879 53.573-58.249 92.555-112.919 93.177-63.786-0.601-115.498-52.652-115.498-116.577 0-64.295 52.309-116.604 116.604-116.604 64.297 0 116.606 52.309 116.606 116.604-0.002 3.041-0.155 6.049-0.385 9.035v0zM1244.765 784.242c-18.007-88.708-96.429-155.474-190.45-155.474-94.039 0-172.475 66.793-190.461 155.527-0.795-0.025-1.589-0.053-2.39-0.053h-316.329c-18.007-88.708-96.431-155.474-190.45-155.474-94.039 0-172.475 66.793-190.461 155.527-0.795-0.025-1.589-0.053-2.39-0.053h-81.657v-155.474c0-1.842 0.027-3.676 0.070-5.508 0.016-0.689 0.043-1.377 0.066-2.066 0.035-1.11 0.075-2.219 0.126-3.324 0.042-0.892 0.090-1.781 0.142-2.672 0.048-0.841 0.102-1.68 0.16-2.519 0.074-1.071 0.15-2.144 0.24-3.212 0.042-0.496 0.089-0.99 0.133-1.485 8.743-97.5 78.425-179.931 175.452-204.386 3.519-0.887 6.93-2.021 10.227-3.358 15.060-3.065 30.642-4.679 46.594-4.679h777.366c15.952 0 31.534 1.613 46.594 4.681 3.297 1.337 6.707 2.47 10.227 3.358 97.029 24.455 166.709 106.889 175.452 204.386 0.043 0.496 0.091 0.99 0.133 1.485 0.090 1.068 0.165 2.139 0.24 3.212 0.058 0.839 0.112 1.679 0.16 2.519 0.051 0.889 0.101 1.78 0.142 2.672 0.051 1.106 0.091 2.214 0.126 3.324 0.022 0.688 0.050 1.375 0.066 2.066 0.043 1.831 0.070 3.666 0.070 5.508v155.474h-79.198z" /></svg>