<?xml version="1.0" standalone="no"?><!DOCTYPE svg PUBLIC "-//W3C//DTD SVG 1.1//EN" "http://www.w3.org/Graphics/SVG/1.1/DTD/svg11.dtd"><svg class="icon" width="200px" height="200.00px" viewBox="0 0 1024 1024" version="1.1" xmlns="http://www.w3.org/2000/svg"><path fill="#ffffff" d="M871.445512 97.66946H154.775063c-32.04074 0-58.014298 25.973558-58.014299 58.014298v716.671473c0 32.04074 25.973558 58.014298 58.014299 58.014298h716.670449c32.04074 0 58.014298-25.973558 58.014298-58.014298V155.683758c0-32.04074-25.973558-58.014298-58.014298-58.014298z m-3.057639 746.522338c0 16.019859-12.986779 29.006637-29.006637 29.006637H186.839339c-16.019859 0-29.006637-12.986779-29.006638-29.006637V183.845145c0-16.019859 12.986779-29.006637 29.006638-29.006638h652.540873c16.019859 0 29.006637 12.986779 29.006638 29.006638v660.346653z"  /><path fill="#ffffff" d="M668.652829 385.594055c-58.328453 0-108.470457 28.652574-108.470457 28.652574l-204.661239-206.707852-171.915442 169.868829 248.663407 258.896468 86.981026-72.65474 32.745799 34.79241s-69.584821 68.561515-85.957721 92.097558 6.139837 42.97886 6.139837 42.978861c23.536043 29.67588 55.210439 11.256368 55.21044 11.256368s-17.34811 18.419512 7.211238 44.002166 54.235229 11.256368 54.235229 11.256369l68.561515-83.911109 105.400539 104.377233 74.701352-76.747965c-33.769105-55.258535 5.116531-109.493763 5.116531-215.917608s-115.6336-142.239562-173.962054-142.239562z m-89.369423 120.750132l40.932248-39.568181c32.745798 3.41068 93.461625 46.38954 93.461625 85.275175s-21.830191 62.762439-21.830191 62.762439l-112.563682-105.741299v-2.728134zM509.017062 724.649168l-24.559348-23.876804 79.135338-85.275175 27.970028 25.241894-82.546018 83.910085z m58.669215 58.670237l-24.559349-23.876803 79.135338-85.275176 27.970029 25.241894-82.546018 83.910085z m231.949746-48.777936l-31.722492 36.839023-228.197283-232.290507 18.419512-15.349593 138.146337 135.076418s57.305147-46.048779 49.118697-116.656906-76.747965-78.794577-109.493763-95.167477c0 0-36.839023-10.233062-17.396205-24.559349 0 0 24.559349-12.279674 57.305147-12.279674s132.0065 37.862329 132.006499 121.773438-31.722492 165.775604-8.186449 202.614627z"  /></svg>