<?xml version="1.0" standalone="no"?><!DOCTYPE svg PUBLIC "-//W3C//DTD SVG 1.1//EN" "http://www.w3.org/Graphics/SVG/1.1/DTD/svg11.dtd"><svg class="icon" width="200px" height="200.00px" viewBox="0 0 1024 1024" version="1.1" xmlns="http://www.w3.org/2000/svg"><path fill="#ffffff" d="M356.1984 6.4c-24.4224 0-46.6944 9.216-63.5904 24.32-16.896-15.104-39.168-24.32-63.5904-24.32S182.272 15.616 165.376 30.72C148.48 15.616 126.208 6.4 101.7856 6.4c-52.5824 0-95.3856 42.8032-95.3856 95.3856l0 254.4128c0 76.7488 40.448 117.1968 72.9088 149.6576 30.3616 30.3616 54.272 54.272 54.272 104.704l0 318.0032C133.5808 981.1968 176.384 1024 229.0176 1024c52.5824 0 95.3856-42.8032 95.3856-95.3856l0-318.0032c0-50.432 23.9616-74.3424 54.272-104.704C411.1872 473.3952 451.584 432.9472 451.584 356.1984L451.584 101.7856C451.584 49.2032 408.7808 6.4 356.1984 6.4zM387.9936 356.1984c0 50.432-23.9616 74.3936-54.272 104.704-32.4608 32.4608-72.9088 72.9088-72.9088 149.6576l0 318.0032c0 17.5616-14.2336 31.7952-31.7952 31.7952-17.5616 0-31.7952-14.2336-31.7952-31.7952l0-318.0032c0-76.7488-40.448-117.1968-72.9088-149.6576-30.3616-30.3616-54.272-54.272-54.272-104.704L70.0416 101.7856c0-17.5616 14.2336-31.7952 31.7952-31.7952 17.5616 0 31.7952 14.2336 31.7952 31.7952l0 190.8224c0 17.5616 14.2336 31.7952 31.7952 31.7952 17.5616 0 31.7952-14.2336 31.7952-31.7952L197.2224 101.7856c0-17.5616 14.2336-31.7952 31.7952-31.7952 17.5616 0 31.7952 14.2336 31.7952 31.7952l0 190.8224c0 17.5616 14.2336 31.7952 31.7952 31.7952s31.7952-14.2336 31.7952-31.7952L324.4032 101.7856c0-17.5616 14.2336-31.7952 31.7952-31.7952 17.5616 0 31.7952 14.2336 31.7952 31.7952L387.9936 356.1984zM951.0912 524.4928c-30.3616-30.3616-54.272-54.272-54.272-104.704L896.8192 101.7856c0-52.6336-42.8032-95.3856-95.3856-95.3856-52.5824 0-95.3856 42.8032-95.3856 95.3856l0 318.0032c0 50.432-23.9616 74.3424-54.272 104.704-32.512 32.4608-72.9088 72.9088-72.9088 149.7088 0 14.2848 2.5088 349.7984 222.6176 349.7984C1021.4912 1024 1024 688.4864 1024 674.2016 1024 597.4016 983.552 557.0048 951.0912 524.4928zM801.3824 960.4096c-156.7232 0-158.976-283.0848-158.976-286.208 0-50.432 23.9616-74.3936 54.272-104.704 32.4608-32.4608 72.9088-72.9088 72.9088-149.6576L769.5872 101.7856c0-17.5616 14.2336-31.7952 31.7952-31.7952 17.5616 0 31.7952 14.2336 31.7952 31.7952l0 318.0032c0 76.7488 40.448 117.1968 72.9088 149.6576 30.3616 30.3616 54.272 54.272 54.272 104.704C960.4096 677.0688 958.5664 960.4096 801.3824 960.4096z" /></svg>